<?xml version="1.0" encoding="UTF-8"?><svg id="Layer_2" xmlns="http://www.w3.org/2000/svg" viewBox="0 0 818.08 214.93"><g id="Isolation_Mode"><path d="M76.27,102.26c0-5.3-1.87-9.36-5.61-12.2-3.74-2.83-10.47-5.83-20.19-8.97-9.72-3.15-17.42-6.25-23.09-9.3C11.93,63.44,4.21,52.19,4.21,38.04c0-7.35,2.07-13.91,6.22-19.68,4.14-5.76,10.1-10.27,17.85-13.51C36.03,1.62,44.74,0,54.4,0s18.38,1.76,25.99,5.28c7.6,3.52,13.51,8.49,17.71,14.91,4.21,6.42,6.31,13.71,6.31,21.87h-28.04c0-6.23-1.96-11.08-5.89-14.53-3.93-3.46-9.44-5.19-16.54-5.19s-12.18,1.45-15.98,4.35c-3.8,2.9-5.7,6.72-5.7,11.45,0,4.43,2.23,8.13,6.68,11.12,4.45,2.99,11.01,5.8,19.68,8.41,15.95,4.8,27.57,10.75,34.87,17.85,7.29,7.1,10.94,15.95,10.94,26.55,0,11.78-4.46,21.02-13.37,27.71-8.91,6.7-20.91,10.05-35.99,10.05-10.47,0-20-1.92-28.6-5.75-8.6-3.83-15.16-9.08-19.68-15.75-4.52-6.67-6.78-14.39-6.78-23.18h28.14c0,15.02,8.97,22.53,26.92,22.53,6.67,0,11.87-1.36,15.61-4.07,3.74-2.71,5.61-6.5,5.61-11.36Z" style="fill:#0b1120;"/><path d="M173.62,63.19L201.94,1.87h30.66l-44.68,86.74v49.35h-28.51v-49.35L114.73,1.87h30.75l28.14,61.32Z" style="fill:#0b1120;"/><path d="M363.38,137.97h-28.04l-54.59-89.55v89.55h-28.04V1.87h28.04l54.68,89.73V1.87h27.95v136.1Z" style="fill:#0b1120;"/><path d="M496,24.58h-41.69v113.38h-28.04V24.58h-41.13V1.87h110.86v22.71Z" style="fill:#0b1120;"/><path d="M568.09,88.14h-22.34v49.82h-28.04V1.87h50.57c16.08,0,28.48,3.58,37.2,10.75,8.72,7.17,13.09,17.29,13.09,30.38,0,9.29-2.01,17.03-6.03,23.23-4.02,6.2-10.11,11.14-18.27,14.82l29.44,55.62v1.31h-30.1l-25.52-49.82ZM545.75,65.43h22.62c7.04,0,12.49-1.79,16.36-5.37,3.86-3.58,5.79-8.52,5.79-14.82s-1.82-11.47-5.47-15.14c-3.65-3.68-9.24-5.51-16.78-5.51h-22.53v40.85Z" style="fill:#0b1120;"/><path d="M728.69,109.92h-49.17l-9.35,28.04h-29.82L691.02,1.87h25.99l50.94,136.1h-29.82l-9.44-28.04ZM687.1,87.21h34.02l-17.11-50.94-16.92,50.94Z" style="fill:#0b1120;"/><rect x="786.61" y="106.5" width="31.47" height="31.47" style="fill:gold;"/><path d="M29.28,214.93c-3.6,0-6.71-.6-9.35-1.8-2.64-1.2-4.66-2.91-6.08-5.14-1.42-2.23-2.15-4.86-2.19-7.88h8.99c0,2.16.78,3.85,2.34,5.07,1.56,1.22,3.68,1.83,6.37,1.83s4.62-.6,6.08-1.8c1.46-1.2,2.19-2.85,2.19-4.96,0-1.77-.52-3.32-1.55-4.64-1.03-1.32-2.51-2.22-4.42-2.7l-6.04-1.65c-4.13-1.05-7.3-2.95-9.53-5.68-2.23-2.73-3.34-6.04-3.34-9.93,0-2.97.67-5.56,2.01-7.77,1.34-2.21,3.25-3.91,5.72-5.11,2.47-1.2,5.38-1.8,8.74-1.8,5.08,0,9.11,1.31,12.08,3.92,2.97,2.61,4.48,6.13,4.53,10.54h-8.99c0-2.06-.67-3.68-2.01-4.86-1.34-1.17-3.24-1.76-5.68-1.76s-4.17.55-5.47,1.65c-1.29,1.1-1.94,2.66-1.94,4.68,0,1.82.49,3.37,1.47,4.64.98,1.27,2.41,2.17,4.28,2.7l6.26,1.73c4.17,1.06,7.36,2.94,9.57,5.65,2.21,2.71,3.31,6.05,3.31,10.04,0,2.97-.72,5.6-2.16,7.88-1.44,2.28-3.45,4.04-6.04,5.29s-5.64,1.87-9.14,1.87Z" style="fill:gold;"/><path d="M56.55,214.21v-52.51h10.65l5.11,16.69c.53,1.68.96,3.21,1.29,4.6.33,1.39.55,2.4.65,3.02.1-.62.31-1.63.65-3.02.33-1.39.74-2.92,1.22-4.6l4.89-16.69h10.65v52.51h-8.42v-16.33c0-2.4.07-5.01.22-7.84.14-2.83.31-5.66.5-8.49.19-2.83.42-5.51.68-8.06.26-2.54.49-4.77.68-6.69l-7.05,24.82h-8.2l-7.27-24.82c.24,1.82.48,3.97.72,6.44.24,2.47.47,5.11.68,7.91s.4,5.65.54,8.52.22,5.61.22,8.2v16.33h-8.42Z" style="fill:gold;"/><path d="M99.99,214.21l13.24-52.51h11.58l13.31,52.51h-9.21l-2.88-12.73h-13.96l-2.88,12.73h-9.21ZM113.73,194.14h10.65l-3.17-14.1c-.53-2.35-.98-4.47-1.37-6.37-.38-1.89-.65-3.27-.79-4.14-.14.86-.4,2.24-.75,4.14-.36,1.9-.83,3.99-1.4,6.29l-3.17,14.17Z" style="fill:gold;"/><path d="M147.9,214.21v-52.51h16.62c3.5,0,6.53.65,9.1,1.94s4.57,3.11,6.01,5.43c1.44,2.33,2.16,5.07,2.16,8.24,0,3.45-.88,6.5-2.63,9.14-1.75,2.64-4.11,4.51-7.09,5.61l10.43,22.16h-10.07l-9.14-20.86h-6.4v20.86h-8.99ZM156.9,185.43h7.63c2.54,0,4.53-.69,5.97-2.09,1.44-1.39,2.16-3.31,2.16-5.75s-.72-4.45-2.16-5.86c-1.44-1.41-3.43-2.12-5.97-2.12h-7.63v15.83Z" style="fill:gold;"/><path d="M204.45,214.21v-44.17h-13.74v-8.34h36.54v8.34h-13.74v44.17h-9.06Z" style="fill:gold;"/><path d="M282.78,214.21v-52.51h16.62c3.5,0,6.53.65,9.1,1.94s4.57,3.11,6.01,5.43c1.44,2.33,2.16,5.07,2.16,8.24,0,3.45-.88,6.5-2.63,9.14-1.75,2.64-4.11,4.51-7.09,5.61l10.43,22.16h-10.07l-9.14-20.86h-6.4v20.86h-8.99ZM291.78,185.43h7.63c2.54,0,4.53-.69,5.97-2.09,1.44-1.39,2.16-3.31,2.16-5.75s-.72-4.45-2.16-5.86c-1.44-1.41-3.43-2.12-5.97-2.12h-7.63v15.83Z" style="fill:gold;"/><path d="M330.05,214.21v-52.51h31.51v7.84h-22.66v13.67h20.14v7.77h-20.14v15.39h22.66v7.84h-31.51Z" style="fill:gold;"/><path d="M375.87,214.21v-52.51h32.66v8.34h-23.81v14.03h21.94v8.34h-21.8v21.8h-8.99Z" style="fill:gold;"/><path d="M422.99,214.21v-7.91h10.57v-36.69h-10.57v-7.91h30.21v7.91h-10.58v36.69h10.58v7.91h-30.21Z" style="fill:gold;"/><path d="M468.09,214.21v-52.51h11.01l14.6,42.44c-.14-1.53-.3-3.35-.47-5.43-.17-2.09-.3-4.22-.4-6.4-.1-2.18-.14-4.09-.14-5.72v-24.89h8.2v52.51h-11.01l-14.46-42.44c.09,1.39.21,3.07.36,5.04.14,1.97.26,3.98.36,6.04.1,2.06.14,3.96.14,5.68v25.68h-8.2Z" style="fill:gold;"/><path d="M515.79,214.21v-7.91h10.57v-36.69h-10.57v-7.91h30.21v7.91h-10.58v36.69h10.58v7.91h-30.21Z" style="fill:gold;"/><path d="M560.89,214.21v-52.51h11.01l14.6,42.44c-.14-1.53-.3-3.35-.47-5.43-.17-2.09-.3-4.22-.4-6.4-.1-2.18-.14-4.09-.14-5.72v-24.89h8.2v52.51h-11.01l-14.46-42.44c.09,1.39.21,3.07.36,5.04.14,1.97.26,3.98.36,6.04.1,2.06.14,3.96.14,5.68v25.68h-8.2Z" style="fill:gold;"/><path d="M623.98,214.93c-3.36,0-6.29-.64-8.81-1.91s-4.46-3.07-5.83-5.4c-1.37-2.33-2.05-5.07-2.05-8.24v-22.88c0-3.21.68-5.97,2.05-8.27,1.37-2.3,3.31-4.09,5.83-5.36,2.52-1.27,5.46-1.91,8.81-1.91s6.34.64,8.81,1.91c2.47,1.27,4.4,3.06,5.79,5.36,1.39,2.3,2.09,5.06,2.09,8.27h-9.06c0-2.49-.67-4.39-2.01-5.68-1.34-1.29-3.21-1.94-5.61-1.94s-4.34.65-5.68,1.94c-1.34,1.29-2.01,3.17-2.01,5.61v22.95c0,2.45.67,4.34,2.01,5.68,1.34,1.34,3.24,2.01,5.68,2.01s4.27-.67,5.61-2.01c1.34-1.34,2.01-3.24,2.01-5.68v-5.32h-8.92v-7.77h17.98v13.09c0,3.17-.7,5.91-2.09,8.24-1.39,2.33-3.32,4.12-5.79,5.4-2.47,1.27-5.41,1.91-8.81,1.91Z" style="fill:gold;"/></g></svg>