<?xml version="1.0" encoding="utf-8"?>
<!-- Generator: Adobe Illustrator 22.1.0, SVG Export Plug-In . SVG Version: 6.00 Build 0)  -->
<svg version="1.1" id="Layer_1" xmlns="http://www.w3.org/2000/svg" xmlns:xlink="http://www.w3.org/1999/xlink" x="0px" y="0px"
	 width="228.9px" height="97.4px" viewBox="0 0 228.9 97.4" style="enable-background:new 0 0 228.9 97.4;" xml:space="preserve">
<style type="text/css">
	.st0{fill:#FFFFFF;}
	.st1{fill:#D2252B;}
</style>
<g transform="translate(-41 -974.37)">
	<path class="st0" d="M63,1018.5c-12,0.2-21.8-9.4-22-21.3c0-0.2,0-0.3,0-0.5c0-12.1,9.9-21.9,22-21.9c5.5,0,10.1,1.7,14.7,5.6
		c0.3,0.3,0.4,0.7,0.1,1.1l-0.3,0.4c-0.3,0.3-0.8,0.4-1.1,0.1c0,0,0,0-0.1-0.1c-3.6-3.4-8.4-5.2-13.4-5.2c-11,0-20,8.9-20,19.9
		c-0.1,10.9,8.7,19.7,19.6,19.8c0.1,0,0.3,0,0.4,0c5,0,9.8-2,13.4-5.4c0.2-0.2,0.4-0.2,0.6-0.2c0.2,0,0.4,0.1,0.5,0.3l0.3,0.3
		c0.3,0.3,0.3,0.8,0,1C73.9,1016.4,68.5,1018.5,63,1018.5"/>
	<path class="st0" d="M106.9,1018.7c-0.4,0-0.7-0.3-0.8-0.6l-11.8-38.3l-7.6,37.6c0,0.3-0.2,0.5-0.4,0.7c-0.2,0.1-0.4,0.1-0.5,0
		l-0.4-0.1c-0.4-0.1-0.6-0.5-0.5-0.9c0,0,0-0.1,0-0.1l8.4-41.8c0.1-0.4,0.4-0.7,0.8-0.7c0.4,0,0.8,0.2,0.9,0.6l12,38.7l11.8-38.7
		c0.1-0.4,0.4-0.6,0.8-0.6l0,0c0.4,0,0.7,0.3,0.8,0.6l8.7,41.8c0.2,0.4,0,0.8-0.4,1c0,0-0.1,0-0.1,0l-0.5,0.1
		c-0.2,0.1-0.4,0-0.5-0.1c-0.2-0.2-0.4-0.4-0.4-0.7l-7.9-37.6l-11.6,38.3C107.7,1018.4,107.3,1018.7,106.9,1018.7z M127.9,1017.1
		L127.9,1017.1L127.9,1017.1z M94.1,975.2L94.1,975.2C94.1,975.2,94.1,975.2,94.1,975.2"/>
	<path class="st1" d="M56.7,1071.7c-6.2,0.2-11.3-4.7-11.5-10.8c0-0.2,0-0.3,0-0.5c0-6.7,5-10.2,9-12.3l-1.3-1.4
		c-1.8-1.8-4.8-5.4-4.8-9.4c0-3.6,2.8-9.2,10.3-9.2c4.7,0,9.7,2.9,9.7,9.2c0,5.2-5.5,8.9-10.4,11.3l13.5,13.3
		c2.7-3.8,4.2-8.3,4.3-13c0-0.5-0.1-1.2-0.1-1.8c0-0.5,0.4-0.9,0.9-1h0.2c0.5,0,0.9,0.4,0.9,0.8c0.1,0.6,0.1,1.3,0.1,2
		c-0.1,5.2-1.8,10.1-4.9,14.3l6.4,6.3c0.3,0.2,0.4,0.7,0.2,1c0,0-0.1,0.1-0.1,0.1l-0.4,0.4c-0.3,0.3-0.7,0.3-1,0
		c0,0-0.1-0.1-0.1-0.1l-6.2-6.1C67.6,1069.2,62.3,1071.7,56.7,1071.7 M54.1,1045.3c0.2,0.2,0.5,0.5,0.7,0.7c0.4,0.4,0.8,0.8,1.2,1.2
		c6.7-3.1,10-6.4,10-9.8c0-3.6-2.4-7.3-7.7-7.3c-6.1,0-8.3,4.3-8.3,7.3C49.9,1040.2,52.2,1043.2,54.1,1045.3 M76.3,1047
		C76.3,1047,76.3,1047,76.3,1047C76.3,1047,76.3,1047,76.3,1047 M55.6,1049.5c-5.9,3-8.5,6.4-8.5,11c0,5.4,4,9.3,9.6,9.3
		c5.1,0,9.9-2.3,13.2-6.3L55.6,1049.5z"/>
	<path class="st0" d="M124,1071.2H93c-0.5,0-0.9-0.4-0.9-0.9c0,0,0,0,0,0v-40.7c0-0.5,0.4-0.9,0.9-0.9c0,0,0,0,0,0H124
		c0.5,0,0.9,0.4,0.9,0.9c0,0,0,0,0,0v0.2c0,0.5-0.4,0.9-0.9,0.9c0,0,0,0,0,0H94.1v17.4h27c0.5,0,0.9,0.4,0.9,0.9c0,0,0,0,0,0v0.2
		c0,0.5-0.4,0.9-0.9,0.9c0,0,0,0,0,0h-27v19.1H124c0.5,0,0.9,0.4,0.9,0.9c0,0,0,0,0,0v0.2C124.8,1070.8,124.5,1071.2,124,1071.2
		C124,1071.2,124,1071.2,124,1071.2"/>
	<path class="st0" d="M149.2,1029.8c1.3,0,2.5,0.5,3.4,1.3c0.1,0.1,0.1,0.3,0,0.4c0,0,0,0,0,0l-0.4,0.4c-0.1,0.1-0.2,0.1-0.4,0
		c-0.7-0.7-1.7-1-2.7-1.1c-2.2,0-4,1.9-3.9,4.1c0,2.2,1.7,4,3.9,4c1,0,2-0.4,2.7-1.1c0.1-0.1,0.2-0.1,0.3,0l0.4,0.4
		c0.1,0.1,0.1,0.3,0,0.4c0,0,0,0,0,0c-0.9,0.9-2.1,1.4-3.4,1.4c-2.8,0-5.1-2.2-5.1-5c0,0,0,0,0,0
		C144.1,1032.1,146.4,1029.8,149.2,1029.8C149.2,1029.8,149.2,1029.8,149.2,1029.8"/>
	<path class="st0" d="M154,1039.5l4.3-9.5c0-0.1,0.1-0.2,0.2-0.2h0.1c0.1,0,0.2,0.1,0.2,0.2l4.3,9.5c0.1,0.1,0,0.3-0.1,0.3
		c0,0-0.1,0-0.1,0h-0.6c-0.1,0-0.2-0.1-0.2-0.2l-1-2.3h-5l-1,2.3c0,0.1-0.1,0.2-0.2,0.2h-0.6c-0.1,0-0.3-0.1-0.3-0.2
		C154,1039.5,154,1039.5,154,1039.5 M160.7,1036.5c-0.7-1.5-1.4-3.1-2.1-4.6h-0.1l-2.1,4.6H160.7z"/>
	<path class="st0" d="M165.2,1030.1c0-0.1,0.1-0.3,0.3-0.3h0.4l6.4,7.9h0v-7.5c0-0.1,0.1-0.3,0.3-0.3h0.5c0.1,0,0.3,0.1,0.3,0.3v9.5
		c0,0.1-0.1,0.3-0.3,0.3h-0.3l-6.5-8.1h0v7.7c0,0.1-0.1,0.3-0.3,0.3c0,0,0,0,0,0h-0.5c-0.1,0-0.3-0.1-0.3-0.3V1030.1z"/>
	<path class="st0" d="M175.3,1039.5l4.3-9.5c0-0.1,0.1-0.2,0.2-0.2h0.1c0.1,0,0.2,0.1,0.2,0.2l4.3,9.5c0.1,0.1,0,0.3-0.1,0.3
		c0,0-0.1,0-0.1,0h-0.6c-0.1,0-0.2-0.1-0.2-0.2l-1-2.3h-5l-1,2.3c0,0.1-0.1,0.2-0.2,0.2h-0.6c-0.1,0-0.3-0.1-0.3-0.2
		C175.3,1039.5,175.3,1039.5,175.3,1039.5 M182,1036.5c-0.7-1.5-1.4-3.1-2.1-4.6h-0.1l-2.1,4.6H182z"/>
	<path class="st0" d="M186.5,1030.2c0-0.1,0.1-0.3,0.3-0.3h3.2c2.7,0,4.9,2.2,4.9,4.9c0,2.7-2.2,4.9-4.9,4.9c0,0,0,0,0,0h-3.2
		c-0.1,0-0.3-0.1-0.3-0.3V1030.2z M189.7,1038.9c2.1,0.1,3.9-1.6,4-3.7c0-0.1,0-0.2,0-0.3c0.1-2.1-1.6-3.9-3.7-4c-0.1,0-0.2,0-0.3,0
		h-2.1v7.9H189.7z"/>
	<path class="st0" d="M197.6,1030.2c0-0.1,0.1-0.3,0.3-0.3h0.6c0.1,0,0.3,0.1,0.3,0.3v9.3c0,0.1-0.1,0.3-0.3,0.3h-0.6
		c-0.1,0-0.3-0.1-0.3-0.3V1030.2z"/>
	<path class="st0" d="M200.7,1039.5l4.3-9.5c0-0.1,0.1-0.2,0.2-0.2h0.1c0.1,0,0.2,0.1,0.2,0.2l4.3,9.5c0.1,0.1,0,0.3-0.1,0.3
		c0,0-0.1,0-0.1,0h-0.6c-0.1,0-0.2-0.1-0.2-0.2l-1-2.3h-5l-1,2.3c0,0.1-0.1,0.2-0.2,0.2H201c-0.1,0-0.3-0.1-0.3-0.2
		C200.7,1039.5,200.7,1039.5,200.7,1039.5 M207.4,1036.5c-0.7-1.5-1.4-3.1-2.1-4.6h-0.1l-2.1,4.6H207.4z"/>
	<path class="st0" d="M212,1030.1c0-0.1,0.1-0.3,0.3-0.3h0.4l6.4,7.9h0v-7.5c0-0.1,0.1-0.3,0.3-0.3h0.5c0.1,0,0.3,0.1,0.3,0.3v9.5
		c0,0.1-0.1,0.3-0.3,0.3h-0.3l-6.5-8.1h0v7.7c0,0.1-0.1,0.3-0.3,0.3h-0.5c-0.1,0-0.3-0.1-0.3-0.3V1030.1z"/>
	<path class="st0" d="M146,1045.7c0-0.1,0.1-0.2,0.3-0.2h0.2c0.1,0,0.2,0.1,0.2,0.2l2.8,7.8h0.1l2.8-7.8c0-0.1,0.1-0.2,0.2-0.2h0.2
		c0.1,0,0.2,0.1,0.3,0.2l1.8,9.5c0,0.2,0,0.3-0.3,0.3H154c-0.1,0-0.2-0.1-0.3-0.2l-1.3-7.3h-0.1l-2.6,7.4c0,0.1-0.1,0.1-0.2,0.2
		h-0.3c-0.1,0-0.2-0.1-0.2-0.2l-2.6-7.4h-0.1l-1.2,7.3c0,0.1-0.1,0.2-0.3,0.2h-0.6c-0.2,0-0.3-0.1-0.3-0.3L146,1045.7z"/>
	<path class="st0" d="M156.2,1055.1l4.3-9.5c0-0.1,0.1-0.2,0.2-0.2h0.1c0.1,0,0.2,0.1,0.2,0.2l4.3,9.5c0.1,0.1,0,0.3-0.1,0.3
		c0,0-0.1,0-0.1,0h-0.6c-0.1,0-0.2-0.1-0.2-0.2l-1-2.3h-5l-1,2.3c0,0.1-0.1,0.2-0.2,0.2h-0.6c-0.1,0-0.3-0.1-0.3-0.2
		C156.2,1055.2,156.2,1055.1,156.2,1055.1 M162.9,1052.1c-0.7-1.5-1.4-3.1-2.1-4.6h-0.1l-2.1,4.6H162.9z"/>
	<path class="st0" d="M167.4,1045.7c0-0.1,0.1-0.3,0.3-0.3h0.4l6.4,7.9h0v-7.5c0-0.1,0.1-0.3,0.3-0.3h0.5c0.1,0,0.3,0.1,0.3,0.3v9.5
		c0,0.1-0.1,0.3-0.3,0.3h-0.3l-6.5-8.1h0v7.7c0,0.1-0.1,0.3-0.3,0.3c0,0,0,0,0,0h-0.5c-0.1,0-0.3-0.1-0.3-0.3V1045.7z"/>
	<path class="st0" d="M178.7,1045.9c0-0.1,0.1-0.3,0.3-0.3h0.5c0.1,0,0.3,0.1,0.3,0.3c0,0,0,0,0,0v5.9c-0.1,1.4,0.9,2.7,2.4,2.9
		c0.1,0,0.2,0,0.3,0c1.4,0,2.7-1.1,2.7-2.6c0-0.1,0-0.2,0-0.3v-5.9c0-0.1,0.1-0.3,0.3-0.3c0,0,0,0,0,0h0.5c0.1,0,0.3,0.1,0.3,0.3v6
		c0.1,2-1.5,3.7-3.5,3.8c-0.1,0-0.2,0-0.3,0c-2,0.1-3.7-1.5-3.7-3.5c0-0.1,0-0.2,0-0.3V1045.9z"/>
	<path class="st0" d="M189.5,1045.9c0-0.1,0.1-0.3,0.3-0.3c0,0,0,0,0,0h5.6c0.1,0,0.3,0.1,0.3,0.3c0,0,0,0,0,0v0.4
		c0,0.1-0.1,0.3-0.3,0.3h-4.7v3.9h4c0.1,0,0.3,0.1,0.3,0.3v0.4c0,0.1-0.1,0.3-0.3,0.3h-4v3.8c0,0.1-0.1,0.3-0.3,0.3h-0.5
		c-0.1,0-0.3-0.1-0.3-0.3V1045.9z"/>
	<path class="st0" d="M196.4,1055.1l4.3-9.5c0-0.1,0.1-0.2,0.2-0.2h0.1c0.1,0,0.2,0.1,0.2,0.2l4.3,9.5c0.1,0.1,0,0.3-0.1,0.3
		c0,0-0.1,0-0.1,0h-0.6c-0.1,0-0.2-0.1-0.2-0.2l-1-2.3h-5l-1,2.3c0,0.1-0.1,0.2-0.2,0.2h-0.6c-0.1,0-0.3-0.1-0.3-0.2
		C196.3,1055.2,196.3,1055.1,196.4,1055.1 M203.1,1052.1c-0.7-1.5-1.4-3.1-2.1-4.6h-0.1l-2.1,4.6H203.1z"/>
	<path class="st0" d="M211.9,1045.5c1.3,0,2.5,0.5,3.4,1.3c0.1,0.1,0.1,0.3,0,0.4c0,0,0,0,0,0l-0.4,0.4c-0.1,0.1-0.2,0.1-0.4,0
		c-0.7-0.7-1.7-1-2.7-1.1c-2.2,0-4,1.9-3.9,4.1c0,2.2,1.7,4,3.9,4c1,0,2-0.4,2.7-1.1c0.1-0.1,0.2-0.1,0.3,0l0.4,0.4
		c0.1,0.1,0.1,0.3,0,0.4c0,0,0,0,0,0c-0.9,0.9-2.1,1.4-3.4,1.4c-2.8,0-5.1-2.2-5.1-5c0,0,0,0,0,0
		C206.8,1047.7,209.1,1045.5,211.9,1045.5C211.9,1045.5,211.9,1045.5,211.9,1045.5"/>
	<path class="st0" d="M219.4,1046.5H217c-0.1,0-0.3-0.1-0.3-0.3v-0.4c0-0.1,0.1-0.3,0.3-0.3c0,0,0,0,0,0h6c0.1,0,0.3,0.1,0.3,0.3
		c0,0,0,0,0,0v0.4c0,0.1-0.1,0.3-0.3,0.3l0,0h-2.5v8.7c0,0.1-0.1,0.3-0.3,0.3h-0.5c-0.1,0-0.3-0.1-0.3-0.3V1046.5z"/>
	<path class="st0" d="M225.2,1045.9c0-0.1,0.1-0.3,0.3-0.3h0.5c0.1,0,0.3,0.1,0.3,0.3c0,0,0,0,0,0v5.9c-0.1,1.4,0.9,2.7,2.4,2.9
		c0.1,0,0.2,0,0.3,0c1.4,0,2.7-1.1,2.7-2.6c0-0.1,0-0.2,0-0.3v-5.9c0-0.1,0.1-0.3,0.3-0.3c0,0,0,0,0,0h0.5c0.1,0,0.3,0.1,0.3,0.3v6
		c0.1,2-1.5,3.7-3.5,3.8c-0.1,0-0.2,0-0.3,0c-2,0.1-3.7-1.5-3.7-3.5c0-0.1,0-0.2,0-0.3V1045.9z"/>
	<path class="st0" d="M235.9,1045.9c0-0.1,0.1-0.3,0.3-0.3h3.7c1.7,0,3,1.3,3.1,3c0,0,0,0,0,0c0,1.3-0.9,2.4-2.1,2.9l1.9,3.6
		c0.1,0.1,0,0.3-0.1,0.4c0,0-0.1,0-0.2,0h-0.7c-0.1,0-0.2,0-0.2-0.1l-1.9-3.7H237v3.6c0,0.1-0.1,0.3-0.3,0.3h-0.5
		c-0.1,0-0.3-0.1-0.3-0.3c0,0,0,0,0,0V1045.9z M239.8,1050.7c1.1,0,2-0.9,2-2.1c0-1.1-0.9-2-2-2H237v4H239.8z"/>
	<path class="st0" d="M245.8,1045.9c0-0.1,0.1-0.3,0.3-0.3h5.6c0.1,0,0.3,0.1,0.3,0.3c0,0,0,0,0,0v0.4c0,0.1-0.1,0.3-0.3,0.3l0,0
		h-4.7v3.4h4c0.1,0,0.3,0.1,0.3,0.3v0.4c0,0.1-0.1,0.3-0.3,0.3l0,0h-4v3.6h4.7c0.1,0,0.3,0.1,0.3,0.3c0,0,0,0,0,0v0.4
		c0,0.1-0.1,0.3-0.3,0.3H246c-0.1,0-0.3-0.1-0.3-0.3c0,0,0,0,0,0V1045.9z"/>
	<path class="st0" d="M254.6,1045.9c0-0.1,0.1-0.3,0.3-0.3c0,0,0,0,0,0h3.7c1.7,0,3,1.3,3.1,3c0,0,0,0,0,0c0,1.3-0.9,2.4-2.1,2.9
		l1.9,3.6c0.1,0.1,0,0.3-0.1,0.4c0,0-0.1,0-0.2,0h-0.7c-0.1,0-0.2,0-0.2-0.1l-1.9-3.7h-2.7v3.6c0,0.1-0.1,0.3-0.3,0.3h-0.5
		c-0.1,0-0.3-0.1-0.3-0.3c0,0,0,0,0,0V1045.9z M258.5,1050.7c1.1,0,2-0.9,2-2.1c0-1.1-0.9-2-2-2h-2.7v4H258.5z"/>
	<path class="st0" d="M263.8,1054c0.1-0.1,0.1-0.2,0.2-0.3c0.1-0.2,0.3-0.3,0.5-0.1c0.6,0.6,1.5,1,2.4,1.1c0.9,0.1,1.8-0.6,1.9-1.5
		c0,0,0,0,0-0.1c0-1-0.8-1.6-2.5-2.2c-1.6-0.7-2.5-1.3-2.5-2.9c0.1-1.5,1.4-2.6,2.8-2.5c0.1,0,0.1,0,0.2,0c0.9,0,1.7,0.3,2.4,0.7
		c0.2,0.1,0.2,0.3,0.1,0.4c0,0,0,0,0,0.1c-0.1,0.1-0.1,0.2-0.2,0.3c-0.1,0.2-0.3,0.2-0.4,0.2c0,0-0.1,0-0.1,0
		c-0.5-0.4-1.2-0.6-1.8-0.6c-1.5,0-1.9,1-1.9,1.6c0,0.9,0.7,1.5,1.9,2c1.9,0.8,3.1,1.5,3.1,3.1c-0.1,1.5-1.5,2.7-3,2.5c0,0,0,0,0,0
		c-1.1,0-2.2-0.4-3-1.1C263.8,1054.4,263.7,1054.2,263.8,1054C263.8,1054,263.8,1054,263.8,1054"/>
	<path class="st1" d="M146.5,1065.8L146.5,1065.8l-0.3-0.4c-0.6-0.5-1-1.3-1-2.1c0-1.3,1.1-2.3,2.3-2.3c0.1,0,0.1,0,0.2,0
		c1.2-0.1,2.3,0.8,2.4,2c0,0.1,0,0.1,0,0.2c0,1.3-1.3,2.2-2.1,2.7l2.3,2.3c0.4-0.8,0.6-1.6,0.6-2.5c0-0.3,0.1-0.3,0.3-0.3h0.3
		c0.3,0,0.3,0.2,0.3,0.3c0,1.1-0.3,2.2-0.8,3.2l1.4,1.4c0.2,0.2,0.3,0.3,0,0.6l-0.2,0.2c-0.1,0.2-0.4,0.2-0.5,0c0,0,0,0-0.1-0.1
		l-1.2-1.2c-0.8,0.9-1.9,1.4-3.1,1.4c-1.4,0.1-2.6-0.9-2.7-2.3c0-0.1,0-0.2,0-0.3C144.7,1067.4,145.4,1066.4,146.5,1065.8
		 M147.3,1070.4c0.9,0,1.8-0.4,2.4-1.2l-2.6-2.7c-0.9,0.4-1.5,1.3-1.6,2.2C145.6,1069.6,146.3,1070.4,147.3,1070.4
		C147.3,1070.4,147.3,1070.4,147.3,1070.4 M149.1,1063.3c0-0.8-0.6-1.4-1.4-1.4c0,0-0.1,0-0.1,0c-0.8,0-1.4,0.6-1.5,1.3
		c0,0.1,0,0.1,0,0.2c0.1,0.6,0.4,1.2,0.9,1.6l0.3,0.3C148,1065,149.1,1064.3,149.1,1063.3"/>
	<path class="st0" d="M158.4,1061.5c0-0.1,0.1-0.3,0.3-0.3h5.6c0.1,0,0.3,0.1,0.3,0.3c0,0,0,0,0,0v0.4c0,0.1-0.1,0.3-0.3,0.3l0,0
		h-4.7v3.4h4c0.1,0,0.3,0.1,0.3,0.3v0.4c0,0.1-0.1,0.3-0.3,0.3l0,0h-4v3.6h4.7c0.1,0,0.3,0.1,0.3,0.3c0,0,0,0,0,0v0.4
		c0,0.1-0.1,0.3-0.3,0.3h-5.6c-0.1,0-0.3-0.1-0.3-0.3c0,0,0,0,0,0V1061.5z"/>
	<path class="st0" d="M169.3,1066.1l-2.7-4.4c-0.1-0.1-0.1-0.3,0.1-0.4c0.1,0,0.1-0.1,0.2,0h0.8c0.1,0,0.2,0,0.2,0.1l2.2,3.7h0
		l2.2-3.7c0.1-0.1,0.1-0.1,0.2-0.1h0.8c0.1,0,0.3,0.1,0.3,0.2c0,0.1,0,0.1,0,0.2l-2.8,4.4l2.9,4.7c0.1,0.1,0.1,0.3-0.1,0.4
		c-0.1,0-0.1,0.1-0.2,0h-0.6c-0.1,0-0.2,0-0.2-0.1l-2.4-4h0l-2.4,4c-0.1,0.1-0.1,0.1-0.2,0.1h-0.6c-0.3,0-0.4-0.2-0.3-0.4
		L169.3,1066.1z"/>
	<path class="st0" d="M176.1,1061.5c0-0.1,0.1-0.3,0.3-0.3c0,0,0,0,0,0h3.1c1.7,0,3.1,1.4,3.2,3.1c0,1.7-1.4,3.2-3.1,3.2h-2.3v3.3
		c0,0.1-0.1,0.3-0.3,0.3h-0.5c-0.1,0-0.3-0.1-0.3-0.3V1061.5z M179.4,1066.5c1.2,0,2.1-1,2.1-2.2c0-1.1-1-2.1-2.1-2h-2.2v4.2H179.4z
		"/>
	<path class="st0" d="M189.3,1061.1c2.8,0,5.1,2.3,5.1,5.1c0,0,0,0,0,0c0,2.8-2.2,5.1-5,5.1c0,0,0,0-0.1,0c-2.8,0-5-2.2-5.1-5
		c0,0,0,0,0-0.1C184.2,1063.4,186.5,1061.1,189.3,1061.1C189.3,1061.1,189.3,1061.1,189.3,1061.1 M189.3,1070.3
		c2.3,0,4.1-1.8,4.1-4.1c0-2.3-1.8-4.1-4.1-4.1c-2.3,0-4.1,1.8-4.1,4.1C185.3,1068.4,187.1,1070.3,189.3,1070.3"/>
	<path class="st0" d="M197.1,1061.5c0-0.1,0.1-0.3,0.3-0.3c0,0,0,0,0,0h3.7c1.7,0,3,1.3,3.1,3c0,0,0,0,0,0c0,1.3-0.9,2.4-2.1,2.9
		l1.9,3.6c0.1,0.1,0,0.3-0.1,0.4c0,0-0.1,0-0.2,0H203c-0.1,0-0.2,0-0.2-0.1l-1.9-3.7h-2.7v3.6c0,0.1-0.1,0.3-0.3,0.3h-0.5
		c-0.1,0-0.3-0.1-0.3-0.3c0,0,0,0,0,0V1061.5z M200.9,1066.3c1.1,0,2-0.9,2-2.1c0-1.1-0.9-2-2-2h-2.7v4H200.9z"/>
	<path class="st0" d="M208.3,1062.2h-2.5c-0.1,0-0.3-0.1-0.3-0.3v-0.4c0-0.1,0.1-0.3,0.3-0.3c0,0,0,0,0,0h6c0.1,0,0.3,0.1,0.3,0.3
		c0,0,0,0,0,0v0.4c0,0.1-0.1,0.3-0.3,0.3l0,0h-2.5v8.7c0,0.1-0.1,0.3-0.3,0.3h-0.5c-0.1,0-0.3-0.1-0.3-0.3V1062.2z"/>
	<path class="st0" d="M214.2,1061.5c0-0.1,0.1-0.3,0.3-0.3c0,0,0,0,0,0h5.6c0.1,0,0.3,0.1,0.3,0.3c0,0,0,0,0,0v0.4
		c0,0.1-0.1,0.3-0.3,0.3h-4.7v3.4h4c0.1,0,0.3,0.1,0.3,0.3v0.4c0,0.1-0.1,0.3-0.3,0.3h-4v3.6h4.7c0.1,0,0.3,0.1,0.3,0.3v0.4
		c0,0.1-0.1,0.3-0.3,0.3h-5.6c-0.1,0-0.3-0.1-0.3-0.3c0,0,0,0,0,0V1061.5z"/>
	<path class="st0" d="M223.1,1061.5c0-0.1,0.1-0.3,0.3-0.3c0,0,0,0,0,0h3.7c1.7,0,3,1.3,3.1,3c0,0,0,0,0,0c0,1.3-0.9,2.4-2.1,2.9
		l1.9,3.6c0.1,0.1,0,0.3-0.1,0.4c0,0-0.1,0-0.2,0h-0.7c-0.1,0-0.2,0-0.2-0.1l-1.9-3.7h-2.7v3.6c0,0.1-0.1,0.3-0.3,0.3h-0.5
		c-0.1,0-0.3-0.1-0.3-0.3c0,0,0,0,0,0V1061.5z M226.9,1066.3c1.1,0,2-0.9,2-2.1c0-1.1-0.9-2-2-2h-2.7v4H226.9z"/>
	<path class="st0" d="M232.3,1069.6c0.1-0.1,0.1-0.2,0.2-0.3c0.1-0.2,0.3-0.3,0.5-0.1c0.6,0.6,1.5,1,2.4,1.1
		c0.9,0.1,1.8-0.6,1.9-1.5c0,0,0,0,0-0.1c0-1-0.8-1.6-2.5-2.2c-1.6-0.7-2.5-1.3-2.5-2.9c0.1-1.5,1.4-2.6,2.8-2.5c0.1,0,0.1,0,0.2,0
		c0.9,0,1.7,0.3,2.4,0.7c0.2,0.1,0.2,0.3,0.1,0.4c0,0,0,0,0,0.1c-0.1,0.1-0.1,0.2-0.2,0.3c-0.1,0.2-0.3,0.2-0.4,0.2c0,0-0.1,0-0.1,0
		c-0.6-0.4-1.2-0.6-1.8-0.6c-1.5,0-1.9,1-1.9,1.6c0,0.9,0.7,1.5,1.9,2c1.9,0.8,3.1,1.5,3.1,3.1c-0.1,1.5-1.5,2.7-3,2.5c0,0,0,0,0,0
		c-1.1,0-2.2-0.4-3-1.1C232.2,1070,232.1,1069.9,232.3,1069.6C232.2,1069.7,232.3,1069.7,232.3,1069.6"/>
</g>
</svg>
