<svg xmlns="http://www.w3.org/2000/svg" fill="none" viewBox="0 0 24 24" id="Cobalt--Streamline-Ultimate" height="24" width="24">
  <desc>
    Cobalt Streamline Icon: https://streamlinehq.com
  </desc>
  <path stroke="#000000" stroke-linejoin="round" d="M1.5 0.5h21s1 0 1 1v21s0 1 -1 1h-21s-1 0 -1 -1v-21s0 -1 1 -1" stroke-width="1"></path>
  <path stroke="#000000" stroke-linecap="round" stroke-linejoin="round" d="M7 19h10" stroke-width="1"></path>
  <path stroke="#000000" stroke-linecap="round" stroke-linejoin="round" d="M11.813 9.00049c-0.3089 -0.8739 -1.2703 -1.5 -2.25001 -1.5 -1.24264 0 -2.25 1.00736 -2.25 2.25v4.50001c0 1.2426 1.00736 2.25 2.25 2.25 0.97971 0 1.94111 -0.6261 2.25001 -1.5" stroke-width="1"></path>
  <path stroke="#000000" stroke-linecap="round" stroke-linejoin="round" d="M14.2598 13.1667v1.6666c0 0.9205 0.7462 1.6667 1.6666 1.6667 0.9205 0 1.6667 -0.7462 1.6667 -1.6667v-1.6666c0 -0.9205 -0.7462 -1.6667 -1.6667 -1.6667 -0.9204 0 -1.6666 0.7462 -1.6666 1.6667Z" stroke-width="1"></path>
</svg>