<svg xmlns="http://www.w3.org/2000/svg" fill="none" viewBox="0 0 24 24" id="Copper--Streamline-Ultimate" height="24" width="24">
  <desc>
    Copper Streamline Icon: https://streamlinehq.com
  </desc>
  <path stroke="#000000" stroke-linejoin="round" d="M1.5 0.5h21s1 0 1 1v21s0 1 -1 1h-21s-1 0 -1 -1v-21s0 -1 1 -1" stroke-width="1"></path>
  <path stroke="#000000" stroke-linecap="round" stroke-linejoin="round" d="M7 19h10" stroke-width="1"></path>
  <path stroke="#000000" stroke-linecap="round" stroke-linejoin="round" d="M11.313 9.00049c-0.3089 -0.8739 -1.2703 -1.5 -2.25001 -1.5 -1.24264 0 -2.25 1.00736 -2.25 2.25v4.50001c0 1.2426 1.00736 2.25 2.25 2.25 0.97971 0 1.94111 -0.6261 2.25001 -1.5" stroke-width="1"></path>
  <path stroke="#000000" stroke-linecap="round" stroke-linejoin="round" d="M17.3293 11.5v3.4211c0 0.872 -0.7069 1.5789 -1.579 1.5789v0c-0.872 0 -1.5789 -0.7069 -1.5789 -1.5789V11.5" stroke-width="1"></path>
  <path stroke="#000000" stroke-linecap="round" stroke-linejoin="round" d="m17.3291 14.9211 0 1.5789" stroke-width="1"></path>
</svg>