<?xml version="1.0" encoding="UTF-8"?>
<svg id="Layer_1" xmlns="http://www.w3.org/2000/svg" version="1.1" viewBox="0 0 425 155">
  <!-- Generator: Adobe Illustrator 29.4.0, SVG Export Plug-In . SVG Version: 2.1.0 Build 152)  -->
  <defs>
    <style>
      .st0 {
        fill: #fff;
      }
    </style>
  </defs>
  <path class="st0" d="M.7,82.9V1.8c0-1.1.7-1.9,1.8-1.9h17.4c1.1,0,1.9.9,1.9,1.9v81.1c0,1.1-.9,1.9-1.9,1.9H2.6c-1.1,0-1.8-.9-1.8-1.9Z"/>
  <path class="st0" d="M30,82.9V27.1c0-1.1.9-1.9,1.9-1.9h16.1c1,0,1.8.5,1.8,2.1l.6,6.7c3.4-6.1,8.6-10.2,17-10.2,12.3,0,21.5,9.2,21.5,24.7v34.4c0,1.1-1,1.9-2.1,1.9h-16.4c-1.1,0-1.9-.9-1.9-1.9v-29.3c0-7.4-3-11.1-9-11.1-5.8,0-9.1,3.7-9.1,11.1v29.3c0,1.1-.9,1.9-1.9,1.9h-16.5c-1.1,0-1.9-.9-1.9-1.9Z"/>
  <path class="st0" d="M111.5,83.4l-22.3-56.1c-.5-1.3.2-2.1,1.6-2.1h16.9c1,0,1.9.5,2.3,1.5l12,34.6,11.9-34.6c.4-1,1.5-1.5,2.4-1.5h16.8c1.3,0,2.1.7,1.6,2.1l-22.3,56.1c-.4,1-1.2,1.5-2.2,1.5h-16.7c-1,0-1.8-.5-2.2-1.5Z"/>
  <path class="st0" d="M152,54.8c0-17.5,12.3-31,30.9-31,18.3,0,28.8,13.3,28.8,28.6,0,6.4-1.6,10.5-7.5,10.5h-32.2c2.2,5.5,7.4,7.5,14.8,7.5,3.4,0,7.3-.1,12.3-2.8,1-.5,1.6-.2,2.2.7l5.6,7.8c.5.7.6,1.7-.6,2.8-5,5.1-12.7,7.4-21.2,7.4-19.6,0-33.1-13.1-33.1-31.5ZM193.6,48.8c-1.2-6.3-5.6-8.4-10.6-8.4s-9.9,2.3-11.4,8.4h22Z"/>
  <path class="st0" d="M214.3,75.9c-.6-.7-.5-2.3.5-3.7l5.4-7.5c1.1-1.7,2.2-1.3,3.2-.7,5.5,3.7,9.5,5.4,13.3,5.4s4.4-.7,4.4-2.9-1.1-2.6-4.7-4.1l-7.8-3c-7.9-3-12.9-8.5-12.9-16.7,0-12,10.3-18.9,22-18.9,8.2,0,15.7,3.3,21,9.6.7.9.5,1.8-.1,2.4l-6.9,8.3c-.7.9-1.7.7-2.8,0-3.9-2.9-7.1-4.5-10.1-4.5s-3.8,1.8-3.8,3,1.7,2.9,3.8,3.7l9.5,3.8c7.4,2.9,13.3,8.4,13.1,17.4-.2,12.5-11,18.9-23.4,18.9s-18.3-4-23.6-10.3Z"/>
  <path class="st0" d="M271.7,66.2v-25.3s-7.4,0-7.4,0c-1.1,0-1.8-.9-1.8-1.9v-11.8c0-1.1.7-1.9,1.8-1.9h7.4s0-23.4,0-23.4c0-1.1.9-1.9,1.9-1.9h16.8c1.1,0,1.9.9,1.9,1.9v23.4s8.9,0,8.9,0c1.1,0,1.9.9,1.9,1.9v11.8c0,1.1-.9,1.9-1.9,1.9h-8.9s0,23.1,0,23.1c0,2.9,2.2,4.6,5.1,4.6s2.1.1,3.8,0c1-.1,2.1.5,2.1,1.7v11.2c0,3.2-6.8,4-11.2,4-10.1,0-20.4-4.5-20.4-19.3Z"/>
  <g>
    <path class="st0" d="M391.8,35.8l31.5-23.6c.5-.4.8-1,.8-1.6V1.8c0-1.1-.9-2-2-2h-13.1c-.4,0-.8.1-1.2.4l-17.8,13.4c-.3.3-.8.4-1.2.4h-42.8c-.4,0-.8-.1-1.2-.4L327,.2c-.3-.3-.8-.4-1.2-.4h-13.1c-1.1,0-2,.9-2,2v8.9c0,.6.3,1.2.8,1.6l31.5,23.6c.5.4.8,1,.8,1.6v9.8c0,.6-.3,1.2-.8,1.6l-31.5,23.6c-.5.4-.8,1-.8,1.6v8.9c0,1.1.9,2,2,2h13.1c.4,0,.8-.1,1.2-.4l25.8-19.3c.8-.6,1.9-.5,2.6.2l10.7,10.7c.8.8,2,.8,2.8,0l10.7-10.7c.7-.7,1.8-.8,2.6-.2l25.8,19.3c.3.3.8.4,1.2.4h13.1c1.1,0,2-.9,2-2v-8.9c0-.6-.3-1.2-.8-1.6l-31.5-23.6c-.5-.4-.8-1-.8-1.6v-9.8c0-.6.3-1.2.8-1.6ZM386.3,51c0,.5-.2,1-.6,1.4l-16.9,16.9c-.8.8-2,.8-2.8,0l-16.9-16.9c-.4-.4-.6-.9-.6-1.4v-30.3c0-1.1.9-2,2-2h33.8c1.1,0,2,.9,2,2v30.3Z"/>
    <path class="st0" d="M362.4,51.5l-2.1-2.1s0,0,0,0v-2.3s0,0,0,0l-2.3-2.3s0,0,0,0h-2.3s0,0,0,0l-.9.9c0,0,0,.2,0,.2h.5c.1,0,.2.1,0,.2l-.7.7c0,0,0,.2,0,.2h.5c.1,0,.2.1,0,.2l-.7.7c0,0,0,.2,0,.2h1.9c0,0,.1,0,.1.1v.9c0,0,0,.1-.1.1h-.7c-.1,0-.2.1,0,.2l.9.9s0,0,0,0h1.1s0,0,0,0l2.3,2.3s0,0,0,0v1.1s0,0,0,0l2.1,2.1c0,0,.2,0,.2,0v-2s0,0,0,0l4.6-4.6s0,0,0,0v-2.2c0,0,0-.1-.1-.1h-3.4s0,0,0,0l-1.1,1.1s0,0,0,0v3.2c0,.1-.1.2-.2,0Z"/>
    <path class="st0" d="M373.3,25.8l-2.1-2.1c0,0-.2,0-.2,0v.7c0,0,0,.1-.1.1h-3.3c0,0-.1,0-.1.1v.9c0,0,0,.1-.1.1h-2.1c0,0-.1,0-.1.1v3.1c0,.1.1.2.2,0l.9-.9s0,0,0,0h1.1s0,0,0,0l1,1c0,0,0,.1,0,.2l-1.1,1.1s0,0,0,0l-4.6,1.1c0,0,0,0,0,.1v3.4s0,0,0,0l2.1,2.1c0,0,.2,0,.2,0v-1.7c0-.1.1-.2.2,0l1.9,1.9c0,0,.2,0,.2,0v-1.7c0-.1.1-.2.2,0l1.9,1.9c0,0,.2,0,.2,0v-1.7c0-.1.1-.2.2,0l1.9,1.9c0,0,.2,0,.2,0v-4.3c0,0,0-.1.1-.1h.9c0,0,.1,0,.1-.1v-6.9s0,0,0,0Z"/>
    <path class="st0" d="M364.5,27.9l-1.7-.8c0,0-.2,0-.2.1v.8c0,0,0,.1.1.1h1.7c.1,0,.2-.2,0-.2Z"/>
    <path class="st0" d="M370.9,57.7v1.1s0,0,0,0l-.9.9c0,0-.2,0-.2,0v-.7c0,0,0-.1-.1-.1h-.9c0,0-.1,0-.1.1v1.9c0,.1-.1.2-.2,0l-.7-.7c0,0-.2,0-.2,0v.5c0,.1-.1.2-.2,0l-.7-.7c0,0-.2,0-.2,0v.5c0,.1-.1.2-.2,0l-.9-.9s0,0,0,0v-2.3s0,0,0,0l2.3-2.3s0,0,0,0h2.3s0,0,0,0l2.1-2.1c0,0,0-.2,0-.2h-2s0,0,0,0l-1.1-1.1s0,0,0,0v-3.4s0,0,0,0l-5.8-5.8s0,0,0,0v-2.3s0,0,0,0l2.1-2.1c0,0,.2,0,.2,0v1.7c0,.1.1.2.2,0l1.9-1.9c0,0,.2,0,.2,0v1.7c0,.1.1.2.2,0l1.9-1.9c0,0,.2,0,.2,0v1.7c0,.1.1.2.2,0l1.9-1.9c0,0,.2,0,.2,0v7.9s0,0,0,0l2.3,2.3s0,0,0,0v4.5c0,0,0,.1.1.1h1.9c.1,0,.2.1,0,.2l-2.1,2.1s0,0,0,0h-1.1s0,0,0,0l-2.3,2.3s0,0,0,0Z"/>
    <path class="st0" d="M362.7,39.8v-4.4c0,0,0-.1-.1-.1h-8.1s0,0,0,0l-.9.9c0,0,0,.2,0,.2h.5c.1,0,.2.1,0,.2l-.7.7c0,0,0,.2,0,.2h.5c.1,0,.2.1,0,.2l-.7.7c0,0,0,.2,0,.2h2s0,0,0,0l.9-.9c0,0,.2,0,.2,0v.5c0,.1.1.2.2,0l.9-.9s.1,0,.2,0l4.4,2.2c0,0,.2,0,.2-.1Z"/>
    <path class="st0" d="M361.5,35v-10.4s0,0,0,0l-.9-.9c0,0-.2,0-.2,0v.5c0,.1-.1.2-.2,0l-.7-.7c0,0-.2,0-.2,0v.5c0,.1-.1.2-.2,0l-.7-.7c0,0-.2,0-.2,0v2s0,0,0,0l.9.9c0,0,0,.2,0,.2h-.5c-.1,0-.2.1,0,.2l.9.9s0,.1,0,.2l-2.3,4.5c0,0,0,.1,0,.2l4.4,2.2c0,0,.2,0,.2-.1Z"/>
    <path class="st0" d="M361.5,53"/>
    <path class="st0" d="M381.1,27.9l-4.1-2.1c0,0-.1,0-.2,0l-1,1c0,0,0,.1,0,.2l1,1s0,0,0,0h4.1c.1,0,.2-.2,0-.2Z"/>
    <path class="st0" d="M381.3,28.4l-9.1,9.1c0,0,0,.1,0,.2l5.6,5.6c0,0,.2,0,.2,0v-9.1s0,0,0,0l3.5-3.5s0,0,0,0v-2c0-.1-.1-.2-.2,0Z"/>
    <path class="st0" d="M374.5,48.1v-1s0,0,0,0l3.3-3.3c0,0,.2,0,.2,0v2s0,0,0,0l-2.3,2.3s0,0,0,0h-1c0,0-.1,0-.1-.1Z"/>
  </g>
  <g>
    <path class="st0" d="M29.6,153.5L7.5,113.7v39.5c0,.7-.4,1-1,1H1.8c-.7,0-1.1-.4-1.1-1v-48.7c0-.7.4-1,1.1-1h5.9c.6,0,1,.2,1.3.7l22.2,39.9v-39.6c0-.7.4-1,1.1-1h4.7c.7,0,1,.4,1,1v48.7c0,.7-.4,1-1,1h-6.1c-.6,0-1-.2-1.3-.7Z"/>
    <path class="st0" d="M43.5,129.1c0-14.7,11.4-26.2,26-26.2s25.9,11.4,25.9,26.2-11.4,26.1-25.9,26.1-26-11.4-26-26.1ZM69.5,148.6c10.9,0,19.1-8.4,19.1-19.5s-8.3-19.6-19.1-19.6c-10.9,0-19.1,8.4-19.1,19.6s8.3,19.5,19.1,19.5Z"/>
    <path class="st0" d="M112.6,153.3l-17.4-48.6c-.3-.7,0-1.2.8-1.2h4.9c.7,0,1,.2,1.2.9l14.4,41.6,14.4-41.6c.2-.7.6-.9,1.2-.9h4.9c.8,0,1.2.5.9,1.2l-17.4,48.6c-.2.6-.8.9-1.4.9h-5.3c-.6,0-1.1-.3-1.3-.9Z"/>
    <path class="st0" d="M130.4,153l17.4-48.6c.2-.6.7-.9,1.3-.9h5.3c.6,0,1.2.3,1.4.9l17.4,48.6c.3.7,0,1.2-.9,1.2h-4.9c-.6,0-.9-.2-1.2-.9l-3.3-9.7h-22.2s-3.3,9.7-3.3,9.7c-.2.7-.6.9-1.2.9h-4.9c-.8,0-1.1-.5-.8-1.2ZM160.7,137.6l-9-25.9-9,25.9h18Z"/>
    <path class="st0" d="M197.7,147.5c-.4-.6-.4-1,.1-1.6l2.4-2.8c.5-.6,1.2-.4,1.7,0,2.8,3.4,6.1,5.7,11.2,5.7s9.5-3,9.5-7.9-3.6-7-8.3-9.2l-6.2-3c-5.4-2.5-9.3-6.3-9.3-12.8,0-8.2,6.4-13.1,14.5-13.1s10.4,2.5,13.8,6.5c.7.7.5,1.1,0,1.7l-2.3,2.7c-.5.7-1.1.7-1.7,0-2.9-3-5.8-4.7-9.7-4.7s-8.1,2.4-8.1,6.8,2.1,5.6,6.4,7.7l5.7,2.8c5.9,2.8,11.6,6.3,11.6,14.6s-7,14.1-16,14.1-12.6-3.6-15.4-7.6Z"/>
    <path class="st0" d="M233.4,129.1c0-14.7,11-26.2,25.9-26.2s12.8,2.6,17.3,6.7c.5.5.7,1,.1,1.7l-2.9,3.1c-.4.5-.9.5-1.5,0-3.6-3-7.8-4.9-13-4.9-10.9,0-19.1,8.3-19.1,19.6s8.2,19.5,19.1,19.5,9.4-1.9,13-4.9c.6-.6,1.1-.5,1.5,0l2.9,3.2c.6.6.4,1.1-.1,1.6-4.5,4.2-10.2,6.8-17.3,6.8-14.9,0-25.9-11.4-25.9-26.1Z"/>
    <path class="st0" d="M280,129.1c0-14.7,11.4-26.2,26-26.2,14.5,0,25.9,11.4,25.9,26.2s-11.4,26.1-25.9,26.1c-14.6,0-26-11.4-26-26.1ZM306,148.6c10.9,0,19.1-8.4,19.1-19.5,0-11.2-8.3-19.6-19.1-19.6-10.9,0-19.1,8.4-19.1,19.6,0,11.1,8.3,19.5,19.1,19.5Z"/>
    <path class="st0" d="M344.8,153.2v-43.7s-10.6,0-10.6,0c-.7,0-1.1-.4-1.1-1v-4c0-.7.4-1,1.1-1h27.9c.7,0,1,.4,1,1v4c0,.7-.4,1-1,1h-10.6s0,43.7,0,43.7c0,.7-.4,1-1,1h-4.7c-.7,0-1-.4-1-1Z"/>
    <path class="st0" d="M369,153.2v-48.7c0-.7.4-1,1.1-1h4.7c.7,0,1,.4,1,1v48.7c0,.7-.4,1-1,1h-4.7c-.7,0-1.1-.4-1.1-1Z"/>
    <path class="st0" d="M381.2,153l17.4-48.6c.2-.6.7-.9,1.3-.9h5.3c.6,0,1.2.3,1.4.9l17.4,48.6c.3.7,0,1.2-.9,1.2h-4.9c-.6,0-.9-.2-1.2-.9l-3.3-9.7h-22.2s-3.3,9.7-3.3,9.7c-.2.7-.6.9-1.2.9h-4.9c-.8,0-1.1-.5-.8-1.2ZM411.6,137.6l-9-25.9-9,25.9h18Z"/>
  </g>
</svg>