<?xml version="1.0" encoding="UTF-8" standalone="no"?>
<svg xmlns="http://www.w3.org/2000/svg" xmlns:xlink="http://www.w3.org/1999/xlink" xmlns:serif="http://www.serif.com/" width="100%" height="100%" viewBox="0 0 3109 880" version="1.1" xml:space="preserve" style="fill-rule:evenodd;clip-rule:evenodd;stroke-linejoin:round;stroke-miterlimit:2;">
    <g transform="matrix(4.16667,0,0,4.16667,0,0)">
        <path d="M513.362,60.122C498.078,47.297 482.434,37.812 469.255,32.654C466.764,24.649 466.956,18.316 470.5,15.126C479.021,7.454 503.451,20.694 525.067,44.701C545.963,67.908 556.523,92.627 549.512,101.183C542.331,88.551 529.663,73.799 513.362,60.122ZM481.686,178.535C449.376,177.965 423.345,168.207 423.542,156.741C423.629,151.678 428.822,147.13 437.37,143.676C447.712,149.011 460.261,153.853 474.091,157.559C500.761,164.705 525.413,165.809 539.977,161.534C536.026,171.64 511.381,179.06 481.686,178.535ZM426.088,114.791C427.311,110.225 432.781,107.195 440.921,105.765C449.924,113.513 461.34,121.305 474.36,128.227C478.035,130.183 481.694,131.984 485.314,133.646C484.021,133.599 482.717,133.564 481.405,133.541C467.678,133.299 454.802,134.39 443.703,136.484C431.391,129.254 424.362,121.231 426.088,114.791ZM437.208,75.757C439.077,72.242 443.655,70.478 449.973,70.258C457.291,80.179 467.288,90.78 479.23,100.801C481.19,102.444 483.155,104.032 485.121,105.566C472.031,102.242 459.502,100.382 448.495,99.909C438.795,90.439 434.179,81.455 437.208,75.757ZM453.8,41.752C455.321,39.939 457.673,38.956 460.61,38.654C466.083,49.778 474.498,62.245 485.179,74.505C475.689,70.345 466.547,67.228 458.248,65.222C451.98,55.02 449.963,46.325 453.8,41.752ZM528.157,100.033C522.432,95.498 515.93,91 508.799,86.721C503.933,82.566 499.004,77.809 494.211,72.485C484.231,61.403 476.638,49.984 472.148,40.124C483.387,43.412 497.872,51.632 511.952,63.446C528.594,77.41 540.376,92.796 544.093,104.06C539.954,104.652 534.437,103.195 528.157,100.033ZM485.263,95.253C475.938,87.43 468.131,79.154 462.411,71.407C470.955,73.049 480.915,76.383 491.275,81.247C507.002,97.816 523.513,109.822 536.552,114.961C537.668,116.525 538.594,118.042 539.335,119.509C528.875,122.816 506.604,113.161 485.263,95.253ZM492.844,111.27C507.254,121.446 521.215,128.381 532.37,131.209C533.639,132.374 534.745,133.538 535.686,134.693C525.377,138.994 502.61,134.044 479.107,121.548C469.402,116.388 460.87,110.609 453.992,104.833C463.909,104.947 475.646,106.577 487.96,109.876C489.614,110.319 491.239,110.787 492.844,111.27ZM530.378,146.828C532.274,147.843 533.934,148.916 535.336,150.035C526.288,156.572 502.964,156.882 477.214,149.982C467.069,147.265 457.814,143.764 450.03,139.897C459.327,137.879 470.454,136.802 482.4,137.013C486.654,137.088 490.795,137.327 494.786,137.703C508.069,142.969 520.419,146.08 530.378,146.828ZM526.928,41.606C499.284,10.906 468.041,-6.027 457.144,3.784C452.219,8.219 452.333,17.38 456.444,28.898C448.473,27.488 442.27,28.475 438.994,32.38C434.024,38.303 436.69,49.622 444.955,62.891C432.784,61.689 423.889,63.817 420.778,69.668C416.953,76.861 422.668,88.15 434.748,100.089C420.419,101.224 410.607,105.469 408.709,112.554C406.544,120.631 415.145,130.653 430.327,139.759C415.571,144.348 406.265,151.096 406.133,158.77C405.88,173.434 439.171,185.913 480.491,186.642C521.812,187.373 555.511,176.078 555.765,161.413C555.813,158.607 554.623,155.883 552.394,153.303C552.738,152.652 553.028,151.98 553.218,151.272C554.004,148.338 553.351,145.143 551.497,141.832C552.03,141.238 552.501,140.601 552.873,139.901C554.452,136.932 554.389,133.258 552.941,129.134C553.15,128.927 553.41,128.769 553.6,128.543C556.068,125.6 556.639,121.319 555.591,116.137C556.182,115.796 556.745,115.417 557.251,114.962C568.147,105.149 554.571,72.308 526.928,41.606Z" style="fill:#000000;fill-rule:nonzero;"></path>
        <path d="M255.943,179.053L243.502,179.053L243.502,124.349C243.502,117.281 240.534,109.506 227.53,109.506C220.462,109.506 217.069,110.495 213.111,112.191L213.111,179.053L200.672,179.053L200.672,106.819C207.458,103.569 216.364,101.449 228.52,101.449C249.723,101.449 255.943,113.181 255.943,124.064L255.943,179.053ZM186.669,81.377C186.669,85.053 183.419,88.16 179.461,88.16C175.36,88.16 172.11,85.053 172.11,81.377C172.11,77.559 175.36,74.449 179.461,74.449C183.419,74.449 186.669,77.559 186.669,81.377ZM185.679,179.053L173.24,179.053L173.24,102.862L185.679,102.862L185.679,179.053ZM165.447,101.589L162.479,111.06C156.261,109.224 149.193,109.788 145.092,112.475L145.092,179.053L132.653,179.053L132.653,106.962C140.144,103.144 147.355,101.166 165.447,101.589ZM108.875,140.321C108.875,120.956 103.22,108.94 87.105,108.94C82.439,108.94 79.189,109.788 76.221,111.06L76.221,170.855C78.624,171.845 81.734,172.551 85.549,172.551C100.957,172.551 108.875,160.536 108.875,140.321ZM121.314,139.756C121.314,165.059 108.168,180.183 88.095,180.183C83.712,180.183 79.046,179.336 76.221,178.346L76.221,209.445L63.922,209.445L63.922,106.819C69.01,103.852 76.786,101.449 87.669,101.449C109.158,101.449 121.314,116.432 121.314,139.756ZM52.018,151.63C52.018,168.593 39.722,180.467 22.617,180.467C11.59,180.467 5.087,178.346 0,175.096L3.392,166.05C7.067,168.309 12.581,170.572 20.354,170.572C31.523,170.572 38.589,163.364 38.589,152.338C38.589,143.714 33.784,138.483 21.627,133.678C5.37,127.175 0.989,117.139 0.989,107.668C0.989,92.968 11.448,80.387 28.412,80.387C37.319,80.387 44.102,82.647 48.342,85.618L45.235,93.816C41.842,91.697 36.328,89.293 29.825,89.293C19.506,89.293 13.711,96.076 13.711,106.394C13.711,116.432 21.062,120.674 29.967,124.207C49.192,131.698 52.018,143.007 52.018,151.63ZM323.218,180.608C323.218,199.833 312.192,211 293.958,211C283.921,211 275.44,208.879 270.35,205.768L274.167,197.431C278.408,199.833 285.051,201.953 291.837,201.953C305.832,201.953 311.202,193.473 311.202,182.021L311.202,176.651C307.809,178.628 302.581,179.901 295.936,179.901C277.7,179.901 265.969,165.484 265.969,142.302C265.969,118.129 277.7,101.449 300.601,101.449C311.202,101.449 318.835,103.992 323.218,106.819L323.218,180.608ZM311.202,169.442L311.202,111.06C308.376,109.506 304.701,108.94 300.318,108.94C284.911,108.94 278.266,121.804 278.266,141.877C278.266,161.526 284.628,172.551 299.188,172.551C303.993,172.551 308.234,171.28 311.202,169.442ZM724.091,167.388L724.091,117.206C722.253,116.641 720.272,116.359 718.012,116.359C705.856,116.359 701.189,126.817 701.189,142.51C701.189,159.047 706.138,168.517 717.305,168.517C720.272,168.517 722.535,168.235 724.091,167.388ZM746,176.858C739.074,180.534 730.026,182.513 716.88,182.513C693.839,182.513 679.42,168.943 679.42,143.498C679.42,119.044 693.274,104.06 712.922,104.06C717.447,104.06 721.262,104.625 724.091,105.332L724.091,70.134L746,70.134L746,176.858ZM402.303,140.812C402.303,167.53 388.308,182.513 363.289,182.513C350.142,182.513 340.813,180.109 335.725,176.858L335.725,70.134L357.775,70.134L357.775,106.745C361.31,105.051 365.268,103.918 371.912,103.918C389.863,103.918 402.303,118.337 402.303,140.812ZM380.535,142.226C380.535,127.383 377.424,116.499 365.691,116.499C362.158,116.499 359.896,117.064 357.775,118.194L357.775,168.095C359.472,168.801 361.875,169.225 364.561,169.225C375.727,169.225 380.535,159.329 380.535,142.226ZM628.911,176.858C622.551,180.252 612.232,182.513 599.085,182.513C577.032,182.513 565.724,174.313 565.724,158.481C565.724,138.834 585.374,133.039 608.274,130.918L608.274,127.383C608.274,119.467 602.901,117.206 594.845,117.206C587.494,117.206 580,119.609 575.056,121.87L570.247,109.29C575.62,107.028 585.514,103.495 598.943,103.495C616.189,103.495 628.911,110.703 628.911,131.341L628.911,176.858ZM608.274,168.801L608.274,141.094C594.985,142.367 586.361,145.477 586.361,157.634C586.361,166.54 591.452,170.355 600.216,170.355C603.466,170.355 606.294,169.791 608.274,168.801ZM680.684,103.777L676.584,119.327C671.214,117.064 665.558,117.206 661.882,118.902L661.882,181.099L639.832,181.099L639.832,109.147C648.313,105.051 660.187,102.787 680.684,103.777Z" style="fill:#000000;fill-rule:nonzero;"></path>
    </g>
</svg>
