<svg xmlns="http://www.w3.org/2000/svg" fill="none" viewBox="0 0 24 24" id="Manganese--Streamline-Ultimate" height="24" width="24">
  <desc>
    Manganese Streamline Icon: https://streamlinehq.com
  </desc>
  <path stroke="#000000" stroke-linejoin="round" d="M1.5 0.5h21s1 0 1 1v21s0 1 -1 1h-21s-1 0 -1 -1v-21s0 -1 1 -1" stroke-width="1"></path>
  <path stroke="#000000" stroke-linecap="round" stroke-linejoin="round" d="M7 19h10" stroke-width="1"></path>
  <path stroke="#000000" stroke-linecap="round" stroke-linejoin="round" d="M5.58838 16.501V7.94924c0 -0.24757 0.20069 -0.44826 0.44826 -0.44826v0c0.18242 0 0.34665 0.11054 0.4153 0.27955l2.25337 5.54677c0.04266 0.105 0.14471 0.1737 0.25807 0.1737v0c0.11335 0 0.2154 -0.0687 0.25807 -0.1737l2.25335 -5.54677c0.0687 -0.16901 0.2329 -0.27955 0.4153 -0.27955v0c0.2476 0 0.4483 0.20069 0.4483 0.44826V16.501" stroke-width="1"></path>
  <path stroke="#000000" stroke-linecap="round" stroke-linejoin="round" d="M14.9165 16.501v-3.3334c0 -0.9204 0.7462 -1.6666 1.6667 -1.6666 0.9204 0 1.6666 0.7462 1.6666 1.6666v3.3334" stroke-width="1"></path>
  <path stroke="#000000" stroke-linecap="round" stroke-linejoin="round" d="m14.9165 13.1676 0 -1.6666" stroke-width="1"></path>
</svg>