<?xml version="1.0" encoding="UTF-8"?><svg id="Layer_2" xmlns="http://www.w3.org/2000/svg" viewBox="0 0 251.47 87.31"><g id="Layer_1"><path d="M22.39,30.01c0-1.55-.55-2.75-1.65-3.58s-3.07-1.71-5.93-2.63-5.11-1.83-6.78-2.73C3.5,18.62,1.23,15.32,1.23,11.17c0-2.16.61-4.08,1.82-5.77,1.22-1.69,2.96-3.01,5.24-3.96,2.28-.95,4.83-1.43,7.67-1.43s5.39.52,7.63,1.55c2.23,1.03,3.96,2.49,5.2,4.38,1.23,1.88,1.85,4.02,1.85,6.42h-8.23c0-1.83-.58-3.25-1.73-4.27s-2.77-1.52-4.86-1.52-3.58.43-4.69,1.28c-1.12.85-1.67,1.97-1.67,3.36,0,1.3.65,2.39,1.96,3.26s3.23,1.7,5.78,2.47c4.68,1.41,8.09,3.15,10.23,5.24s3.21,4.68,3.21,7.79c0,3.46-1.31,6.17-3.92,8.13-2.62,1.97-6.14,2.95-10.56,2.95-3.07,0-5.87-.56-8.39-1.69s-4.45-2.67-5.78-4.62c-1.33-1.96-1.99-4.22-1.99-6.8h8.26c0,4.41,2.63,6.61,7.9,6.61,1.96,0,3.48-.4,4.58-1.19s1.65-1.91,1.65-3.33Z" style="fill:gold;"/><path d="M49.21.55l10.26,28.97L69.68.55h10.81v39.94h-8.26v-10.92l.82-18.85-10.78,29.77h-5.65l-10.75-29.74.82,18.82v10.92h-8.23V.55h10.75Z" style="fill:gold;"/><path d="M112.97,32.26h-14.43l-2.74,8.23h-8.75L101.91.55h7.63l14.95,39.94h-8.75l-2.77-8.23ZM100.76,25.6h9.99l-5.02-14.95-4.97,14.95Z" style="fill:gold;"/><path d="M145.25,25.87h-6.56v14.62h-8.23V.55h14.84c4.72,0,8.36,1.05,10.92,3.15,2.56,2.1,3.84,5.08,3.84,8.92,0,2.73-.59,5-1.77,6.82s-2.97,3.27-5.36,4.35l8.64,16.32v.38h-8.83l-7.49-14.62ZM138.7,19.2h6.64c2.07,0,3.67-.53,4.8-1.58,1.13-1.05,1.7-2.5,1.7-4.35s-.54-3.36-1.61-4.44c-1.07-1.08-2.71-1.62-4.92-1.62h-6.61v11.99Z" style="fill:gold;"/><path d="M197.26,7.21h-12.24v33.28h-8.23V7.21h-12.07V.55h32.54v6.67Z" style="fill:gold;"/><path d="M16.46,72.14h-6.56v14.62H1.67v-39.94h14.84c4.72,0,8.36,1.05,10.92,3.15,2.56,2.1,3.84,5.08,3.84,8.92,0,2.73-.59,5-1.77,6.82s-2.97,3.27-5.36,4.35l8.64,16.32v.38h-8.83l-7.49-14.62ZM9.9,65.47h6.64c2.07,0,3.67-.53,4.8-1.58,1.13-1.05,1.7-2.5,1.7-4.35s-.54-3.36-1.61-4.44c-1.07-1.08-2.71-1.62-4.92-1.62h-6.61v11.99Z" style="fill:gold;"/><path d="M62.68,69.45h-15.8v10.7h18.54v6.61h-26.77v-39.94h26.72v6.67h-18.49v9.52h15.8v6.45Z" style="fill:gold;"/><path d="M95.41,70.44h-15.8v16.32h-8.23v-39.94h26.01v6.67h-17.78v10.31h15.8v6.64Z" style="fill:gold;"/><path d="M112.03,86.76h-8.23v-39.94h8.23v39.94Z" style="fill:gold;"/><path d="M153.27,86.76h-8.23l-16.02-26.28v26.28h-8.23v-39.94h8.23l16.05,26.34v-26.34h8.2v39.94Z" style="fill:gold;"/><path d="M170.33,86.76h-8.23v-39.94h8.23v39.94Z" style="fill:gold;"/><path d="M211.56,86.76h-8.23l-16.02-26.28v26.28h-8.23v-39.94h8.23l16.05,26.34v-26.34h8.2v39.94Z" style="fill:gold;"/><path d="M251.47,81.71c-1.48,1.77-3.58,3.15-6.28,4.13s-5.71,1.47-9,1.47c-3.46,0-6.49-.75-9.09-2.26-2.61-1.51-4.62-3.7-6.04-6.57-1.42-2.87-2.15-6.25-2.18-10.12v-2.72c0-3.99.67-7.44,2.02-10.36,1.34-2.92,3.28-5.15,5.82-6.69,2.53-1.55,5.5-2.32,8.9-2.32,4.74,0,8.44,1.13,11.11,3.39s4.25,5.55,4.75,9.86h-8.01c-.37-2.29-1.17-3.96-2.43-5.02-1.25-1.06-2.98-1.59-5.17-1.59-2.8,0-4.93,1.05-6.39,3.15-1.46,2.1-2.2,5.23-2.22,9.38v2.55c0,4.19.8,7.35,2.39,9.49s3.92,3.21,7,3.21,5.29-.66,6.61-1.98v-6.89h-7.49v-6.06h15.72v15.94Z" style="fill:gold;"/></g></svg>