<?xml version="1.0" encoding="UTF-8"?><svg id="Layer_2" xmlns="http://www.w3.org/2000/svg" viewBox="0 0 788.57 216.13"><g id="Layer_1"><path d="M253.78,194.65v-53.3h14.67c3.6,0,6.71.39,9.34,1.18s4.68,2.2,6.15,4.24,2.2,4.92,2.2,8.65c0,2.19-.18,4.15-.53,5.86-.35,1.71-1,3.19-1.94,4.44-.94,1.25-2.29,2.29-4.05,3.13l7.3,25.79h-12.17l-5.86-23.88h-3.36v23.88h-11.78ZM265.56,163.98h3.29c1.67,0,2.96-.3,3.88-.89.92-.59,1.57-1.45,1.94-2.57.37-1.12.56-2.47.56-4.05,0-2.28-.42-4.06-1.25-5.33-.83-1.27-2.37-1.91-4.61-1.91h-3.82v14.74Z" style="fill:#0b1120;"/><path d="M293.33,194.65v-53.3h23.95v8.03h-12.17v13.23h9.28v8.16h-9.28v15.92h12.3v7.96h-24.08Z" style="fill:#0b1120;"/><path d="M323.07,194.65v-53.3h23.03v7.96h-11.25v13.42h9.8v8.22h-9.8v23.69h-11.78Z" style="fill:#0b1120;"/><path d="M351.69,194.65v-53.3h11.78v53.3h-11.78Z" style="fill:#0b1120;"/><path d="M371.76,194.65v-53.3h8.29l10.92,25.66v-25.66h9.74v53.3h-7.96l-10.92-27.64v27.64h-10.07Z" style="fill:#0b1120;"/><path d="M409.06,194.65v-53.3h11.78v53.3h-11.78Z" style="fill:#0b1120;"/><path d="M429.13,194.65v-53.3h8.29l10.92,25.66v-25.66h9.74v53.3h-7.96l-10.92-27.64v27.64h-10.07Z" style="fill:#0b1120;"/><path d="M480.26,195.44c-3.68,0-6.59-.77-8.72-2.3-2.13-1.54-3.64-3.7-4.54-6.48-.9-2.79-1.35-6-1.35-9.64v-17.9c0-3.77.48-7.04,1.45-9.8.96-2.76,2.62-4.9,4.97-6.42,2.35-1.51,5.54-2.27,9.57-2.27s7.05.66,9.31,1.97c2.26,1.32,3.87,3.14,4.84,5.46.96,2.33,1.45,5.04,1.45,8.16v3.42h-11.51v-4.34c0-1.14-.08-2.19-.23-3.16-.15-.96-.5-1.74-1.05-2.34-.55-.59-1.44-.89-2.67-.89s-2.19.34-2.76,1.02c-.57.68-.93,1.52-1.09,2.53-.15,1.01-.23,2.06-.23,3.16v24.67c0,1.18.12,2.29.36,3.32.24,1.03.68,1.86,1.32,2.5.63.64,1.55.95,2.73.95s2.17-.33,2.83-.99c.66-.66,1.12-1.51,1.38-2.57.26-1.05.39-2.17.39-3.36v-6.25h-4.8v-6.91h15.4v27.64h-7.76l-.66-4.41c-.7,1.49-1.73,2.73-3.09,3.72-1.36.99-3.2,1.48-5.53,1.48Z" style="fill:#0b1120;"/><path d="M537.43,195.44c-4.04,0-7.23-.73-9.57-2.2-2.35-1.47-4-3.53-4.97-6.19-.97-2.65-1.45-5.78-1.45-9.38v-19.21c0-3.68.48-6.85,1.45-9.51.96-2.65,2.62-4.7,4.97-6.15,2.35-1.45,5.54-2.17,9.57-2.17s7.03.65,9.25,1.94c2.21,1.29,3.78,3.1,4.7,5.43.92,2.33,1.38,5,1.38,8.03v4.61h-11.51v-5.33c0-1.05-.06-2.06-.16-3.03-.11-.96-.43-1.77-.95-2.4-.53-.64-1.43-.95-2.7-.95s-2.14.33-2.73.99c-.59.66-.97,1.48-1.12,2.47-.15.99-.23,2.03-.23,3.13v25.07c0,1.18.1,2.27.3,3.26s.59,1.78,1.18,2.37c.59.59,1.46.89,2.6.89,1.23,0,2.11-.32,2.63-.95.53-.64.86-1.46.99-2.47.13-1.01.2-2.04.2-3.09v-5.59h11.51v4.61c0,3.03-.45,5.74-1.35,8.13-.9,2.39-2.46,4.28-4.67,5.66-2.22,1.38-5.32,2.07-9.31,2.07Z" style="fill:#0b1120;"/><path d="M574.81,195.44c-3.99,0-7.15-.7-9.47-2.11-2.33-1.4-3.99-3.42-5-6.05-1.01-2.63-1.51-5.77-1.51-9.41v-19.81c0-3.68.5-6.82,1.51-9.41,1.01-2.59,2.67-4.57,5-5.95,2.32-1.38,5.48-2.07,9.47-2.07s7.23.69,9.57,2.07c2.35,1.38,4.02,3.37,5.03,5.95,1.01,2.59,1.51,5.72,1.51,9.41v19.81c0,3.64-.5,6.78-1.51,9.41-1.01,2.63-2.69,4.65-5.03,6.05-2.35,1.4-5.54,2.11-9.57,2.11ZM574.81,187.08c1.23,0,2.13-.31,2.7-.92.57-.61.94-1.4,1.12-2.37.17-.96.26-1.95.26-2.96v-25.66c0-1.05-.09-2.05-.26-2.99-.18-.94-.55-1.72-1.12-2.34-.57-.61-1.47-.92-2.7-.92-1.14,0-2,.31-2.57.92-.57.61-.94,1.39-1.12,2.34-.18.94-.26,1.94-.26,2.99v25.66c0,1.01.08,2,.23,2.96.15.97.5,1.76,1.05,2.37.55.61,1.44.92,2.67.92Z" style="fill:#0b1120;"/><path d="M598.43,194.65v-53.3h14.67c3.6,0,6.71.39,9.34,1.18s4.68,2.2,6.15,4.24,2.2,4.92,2.2,8.65c0,2.19-.18,4.15-.53,5.86-.35,1.71-1,3.19-1.94,4.44-.94,1.25-2.29,2.29-4.05,3.13l7.3,25.79h-12.17l-5.86-23.88h-3.36v23.88h-11.78ZM610.21,163.98h3.29c1.67,0,2.96-.3,3.88-.89.92-.59,1.57-1.45,1.94-2.57.37-1.12.56-2.47.56-4.05,0-2.28-.42-4.06-1.25-5.33-.83-1.27-2.37-1.91-4.61-1.91h-3.82v14.74Z" style="fill:#0b1120;"/><path d="M637.97,194.65v-53.3h17.9c3.2,0,5.83.6,7.9,1.81,2.06,1.21,3.6,2.96,4.61,5.26,1.01,2.3,1.51,5.1,1.51,8.39,0,4.12-.68,7.27-2.04,9.44-1.36,2.17-3.2,3.67-5.53,4.51-2.33.83-4.93,1.25-7.83,1.25h-4.74v22.63h-11.78ZM649.75,163.79h3.95c1.45,0,2.54-.26,3.29-.79.75-.53,1.24-1.32,1.48-2.37.24-1.05.36-2.39.36-4.01,0-1.36-.1-2.55-.3-3.59-.2-1.03-.67-1.85-1.42-2.47-.75-.61-1.91-.92-3.49-.92h-3.88v14.15Z" style="fill:#0b1120;"/><path d="M669.95,194.65v-10.13h10.13v10.13h-10.13Z" style="fill:#0b1120;"/><rect x="73.04" y="73.04" width="70.05" height="70.05" style="fill:#0b1120;"/><path d="M108.07,216.13L0,108.07,108.07,0l108.07,108.07-108.07,108.07ZM8.82,108.07l99.25,99.25,99.25-99.25L108.07,8.82,8.82,108.07Z" style="fill:#0b1120;"/><path d="M301.02,99.75c0-3.73-1.32-6.6-3.95-8.6-2.64-2-7.38-4.11-14.23-6.33-6.85-2.22-12.28-4.4-16.27-6.56-10.89-5.89-16.34-13.81-16.34-23.79,0-5.18,1.46-9.81,4.38-13.87,2.92-4.06,7.12-7.24,12.58-9.52,5.47-2.28,11.61-3.43,18.42-3.43s12.96,1.24,18.32,3.72c5.36,2.48,9.52,5.99,12.49,10.51,2.96,4.52,4.45,9.66,4.45,15.42h-19.77c0-4.39-1.38-7.81-4.15-10.25-2.77-2.44-6.65-3.66-11.66-3.66s-8.59,1.02-11.27,3.06c-2.68,2.04-4.02,4.73-4.02,8.07,0,3.12,1.57,5.73,4.71,7.84,3.14,2.11,7.76,4.09,13.87,5.93,11.24,3.38,19.44,7.58,24.58,12.58,5.14,5.01,7.71,11.25,7.71,18.71,0,8.3-3.14,14.81-9.42,19.54-6.28,4.72-14.74,7.08-25.37,7.08-7.38,0-14.1-1.35-20.16-4.05-6.06-2.7-10.69-6.4-13.87-11.1-3.19-4.7-4.78-10.15-4.78-16.34h19.83c0,10.59,6.33,15.88,18.98,15.88,4.7,0,8.37-.96,11-2.87,2.64-1.91,3.95-4.58,3.95-8.01Z" style="fill:#0b1120;"/><path d="M369.64,72.21l19.96-43.22h21.61l-31.49,61.14v34.79h-20.1v-34.79l-31.49-61.14h21.68l19.83,43.22Z" style="fill:#0b1120;"/><path d="M503.4,124.92h-19.77l-38.48-63.12v63.12h-19.77V28.99h19.77l38.54,63.25V28.99h19.7v95.93Z" style="fill:#0b1120;"/><path d="M596.88,45h-29.39v79.92h-19.77V45h-28.99v-16.01h78.14v16.01Z" style="fill:#0b1120;"/><path d="M647.69,89.8h-15.75v35.12h-19.77V28.99h35.64c11.33,0,20.07,2.53,26.22,7.58,6.15,5.05,9.22,12.19,9.22,21.41,0,6.55-1.42,12-4.25,16.37-2.83,4.37-7.13,7.85-12.88,10.44l20.75,39.2v.92h-21.22l-17.99-35.12ZM631.95,73.79h15.95c4.96,0,8.81-1.26,11.53-3.79,2.72-2.53,4.08-6.01,4.08-10.44s-1.28-8.08-3.85-10.67c-2.57-2.59-6.51-3.89-11.83-3.89h-15.88v28.79Z" style="fill:#0b1120;"/><path d="M760.9,105.16h-34.66l-6.59,19.77h-21.02l35.71-95.93h18.32l35.91,95.93h-21.02l-6.65-19.77ZM731.58,89.15h23.98l-12.06-35.91-11.93,35.91Z" style="fill:#0b1120;"/></g></svg>